<?xml version="1.0" encoding="utf-8"?>
<!-- Svg Vector Icons : http://www.onlinewebfonts.com/icon -->
<!DOCTYPE svg PUBLIC "-//W3C//DTD SVG 1.1//EN" "http://www.w3.org/Graphics/SVG/1.1/DTD/svg11.dtd">
<svg version="1.1" xmlns="http://www.w3.org/2000/svg" xmlns:xlink="http://www.w3.org/1999/xlink" x="0px" y="0px" viewBox="0 0 256 256" enable-background="new 0 0 256 256" xml:space="preserve">
<metadata> Svg Vector Icons : http://www.onlinewebfonts.com/icon </metadata>
<g> <path fill="#b8d8df" d="M128,58.1l-94.8,85.6h23.9v95.7h141.8v-95.7h23.9L128,58.1z"/> <path fill="#040000" d="M176.2,150.2c-0.4,0-0.9,0-1.3-0.1c-0.4-0.1-0.8-0.2-1.2-0.4c-0.4-0.2-0.8-0.4-1.1-0.6 c-0.4-0.2-0.7-0.5-1-0.8s-0.6-0.6-0.8-1c-0.2-0.4-0.4-0.7-0.6-1.1c-0.3-0.8-0.5-1.6-0.5-2.5c0-0.4,0-0.9,0.1-1.3 c0.1-0.4,0.2-0.8,0.4-1.2c0.2-0.4,0.4-0.8,0.6-1.1c0.2-0.4,0.5-0.7,0.8-1c0.3-0.3,0.6-0.6,1-0.8c0.7-0.5,1.5-0.8,2.4-1 c0.8-0.2,1.7-0.2,2.6,0c0.4,0.1,0.8,0.2,1.2,0.4c0.4,0.2,0.8,0.4,1.1,0.6c0.4,0.2,0.7,0.5,1,0.8s0.6,0.6,0.8,1 c0.2,0.4,0.4,0.7,0.6,1.1c0.3,0.8,0.5,1.6,0.5,2.5c0,0.4,0,0.9-0.1,1.3c-0.1,0.4-0.2,0.8-0.4,1.2c-0.2,0.4-0.4,0.8-0.6,1.1 c-0.2,0.4-0.5,0.7-0.8,1c-0.3,0.3-0.6,0.6-1,0.8c-0.4,0.2-0.7,0.4-1.1,0.6C177.9,150.1,177.1,150.2,176.2,150.2L176.2,150.2z"/> <path fill="#f7c885" d="M154.1,239.4h-52.2v-40.1c0-14.4,11.7-26.1,26.1-26.1c14.4,0,26.1,11.7,26.1,26.1V239.4z"/> <path fill="#040000" d="M227.2,138.8l-92.7-83.6V43.9h14.2c3.6,0,6.6-2.9,6.6-6.6c0-3.6-2.9-6.6-6.6-6.6h-14.2V16.6 c0-3.6-2.9-6.6-6.6-6.6c-3.6,0-6.6,2.9-6.6,6.6v14.2h-14.2c-3.6,0-6.6,2.9-6.6,6.6c0,3.6,2.9,6.6,6.6,6.6h14.2v11.3l-92.7,83.6 c-2.7,2.4-2.9,6.6-0.5,9.3c1.2,1.4,3,2.2,4.9,2.2h17.4v89.2c0,3.6,2.9,6.6,6.6,6.6h141.8c3.6,0,6.6-2.9,6.6-6.6v-89.2h17.4 c3.6,0,6.6-2.9,6.6-6.6C229.4,141.8,228.6,140.1,227.2,138.8L227.2,138.8z M108.5,232.9v-33.6c0-10.8,8.8-19.5,19.5-19.5 c10.8,0,19.5,8.8,19.5,19.5v33.6H108.5z M198.9,137.1c-3.6,0-6.6,2.9-6.6,6.6v89.2h-31.7v-33.6c0-18-14.7-32.7-32.7-32.7 c-18,0-32.7,14.7-32.7,32.7v33.6H63.7v-82.7H156c3.6,0,6.6-2.9,6.6-6.6c0-3.6-2.9-6.6-6.6-6.6H56.8c-0.2,0-0.3,0-0.5,0h-6L128,67 l77.8,70.2L198.9,137.1L198.9,137.1z"/></g>
</svg>