<?xml version="1.0" encoding="utf-8"?>
<!-- Svg Vector Icons : http://www.onlinewebfonts.com/icon -->
<!DOCTYPE svg PUBLIC "-//W3C//DTD SVG 1.1//EN" "http://www.w3.org/Graphics/SVG/1.1/DTD/svg11.dtd">
<svg version="1.1" xmlns="http://www.w3.org/2000/svg" xmlns:xlink="http://www.w3.org/1999/xlink" x="0px" y="0px" viewBox="0 0 256 256" enable-background="new 0 0 256 256" xml:space="preserve">
<metadata> Svg Vector Icons : http://www.onlinewebfonts.com/icon </metadata>
<g><g><g><path fill="#000000" d="M125.3,11c-1.2,0.9-1.3,1.4-1.4,7.6l-0.2,6.6h-6.2c-7.3,0-8.6,0.6-8.6,3.9c0,3.4,1.3,3.9,8.7,3.9h6.2v16.4v16.4l-41.7,41.7c-37.2,37.2-41.7,41.8-41.7,43.3c0,2,1.9,3.9,4,3.9c1.3,0,2.9-1.4,10-8.5l8.5-8.5v50.2v50.2H44.4c-17.4,0-18.6,0.1-19.8,1c-1.7,1.4-1.7,4.5,0,5.9c1.2,0.9,4.4,1,103.3,1c111.3,0,103.8,0.2,104.6-2.9c0.4-1.5-0.8-4.1-2-4.7c-0.5-0.2-9.1-0.3-19.2-0.3H193v-50.2v-50.2l8.5,8.5c7.3,7.3,8.8,8.5,10.1,8.5c2,0,3.9-1.9,3.9-4c0-1.3-5.3-6.9-41.7-43.2l-41.7-41.7V49.5V33.1h6c3.3,0,6.4-0.2,6.9-0.3c1.3-0.5,2.4-3.1,2-4.7c-0.6-2.4-2-2.9-8.7-2.9h-6.1l-0.2-6.6c-0.2-6.2-0.2-6.7-1.4-7.6c-0.7-0.5-1.9-1-2.7-1C127.2,10,126,10.5,125.3,11z M156.4,101.1l28.2,28.2v54.4v54.4h-11h-11l-0.2-31.4c-0.2-35.1-0.1-33.8-4.2-41.7c-1.5-2.8-3.3-5.3-5.9-7.9c-4.2-4.2-7.9-6.6-13.5-8.6c-3.4-1.2-4.6-1.4-10.9-1.4c-6.4,0-7.4,0.2-10.9,1.4c-5.6,2-9.3,4.4-13.5,8.6c-2.6,2.5-4.4,5-5.9,7.9c-4.1,8-4,6.6-4.2,41.8l-0.2,31.3h-11h-11v-54.4v-54.4l28.2-28.2C115,85.6,127.8,72.9,128,72.9C128.1,72.9,140.9,85.6,156.4,101.1z M125.4,166.8v11.5h-11.8c-9.8,0-11.8-0.1-11.8-0.7c0-1.9,2.3-7.8,4.1-10.6c4-6.2,12.3-11.6,18.1-11.7l1.4-0.1V166.8L125.4,166.8z M139.3,157.6c4.5,2.2,8.2,5.3,10.9,9.4c1.8,2.8,4.1,8.7,4.1,10.6c0,0.6-2,0.7-11.8,0.7h-11.8v-11.6v-11.6l2.5,0.4C134.5,155.6,137.3,156.6,139.3,157.6z M125.4,211.1v27h-11.8h-11.8v-27v-27h11.8h11.8V211.1z M154.2,211.1v27h-11.8h-11.8v-27v-27h11.8h11.8V211.1z"/><path fill="#000000" d="M124.1,91c-1.7,0.8-37,35.9-37,36.8c0,1.1,1.7,2.8,2.8,2.8c0.8,0,6.4-5.3,18.7-17.6c16.3-16.3,17.7-17.6,19.4-17.6c1.7,0,3.1,1.3,19.4,17.6c12.3,12.3,17.9,17.6,18.7,17.6c1.1,0,2.8-1.7,2.8-2.8c0-1-35.3-36.1-37.1-36.8C129.7,90,126.1,90.1,124.1,91z"/><path fill="#000000" d="M111.4,209.5c-0.7,0.5-1.2,1.4-1.2,2.1c0,2.1,1.8,2.9,6.7,2.9c3.7,0,4.5-0.2,5.5-1.1c1.1-1,1-2.7-0.2-3.9c-0.3-0.3-2.5-0.6-5-0.7C113.5,208.7,112.3,208.9,111.4,209.5z"/><path fill="#000000" d="M134.8,209.1c-1,0.4-2.1,1.7-2.1,2.6c0,0.4,0.5,1.2,1,1.7c0.9,0.9,1.7,1.1,5.4,1.1c4.8,0,6.7-0.8,6.7-2.9c0-2-1.8-2.9-6.3-2.8C137.4,208.8,135.2,209,134.8,209.1z"/></g></g></g>
</svg>